<svg width="16" viewBox="0 0 64 64" fill="none" xmlns="http://www.w3.org/2000/svg">
<g clip-path="url(#clip0_318_184)">
<path d="M26.6539 18.2651L26.8452 18.3929C29.0934 19.8795 30.7054 21.9182 31.7659 24.3817C32.0204 24.7639 31.8509 24.9765 31.3416 25.1037L30.4801 25.3244C28.5322 25.8269 26.9866 26.2495 25.0642 26.752L23.9678 27.0378C23.573 27.1357 23.4641 27.0945 23.0442 26.6158L22.9849 26.5478C22.3861 25.8683 21.9376 25.4145 21.1442 25.0093L20.9913 24.9337C18.3188 23.6173 15.7314 23.9995 13.3134 25.571C10.4287 27.4398 8.944 30.2006 8.98638 33.6408C9.02892 37.0385 11.3619 39.8417 14.7132 40.3089C17.5976 40.6913 20.0155 39.672 21.9245 37.506C22.3063 37.0385 22.6456 36.5289 23.0697 35.9343H14.883C13.9922 35.9343 13.7803 35.3823 14.0771 34.6603L14.2241 34.3135C14.7693 33.0435 15.6149 31.2182 16.164 30.1744L16.2838 29.9497C16.4305 29.695 16.7283 29.3511 17.3009 29.3511H30.9523C31.5654 27.4061 32.5604 25.5685 33.887 23.8295C36.9837 19.7524 40.7166 17.6285 45.7646 16.7367C50.0914 15.9721 54.1638 16.3968 57.8542 18.9029C61.2055 21.1962 63.2841 24.297 63.8356 28.3742C64.5566 34.1081 62.9022 38.78 58.9572 42.7724C56.1575 45.6181 52.7215 47.402 48.7762 48.2089C47.631 48.4215 46.4857 48.4638 45.3829 48.5913C41.5227 48.5062 38.0018 47.402 35.0324 44.8537C32.9439 43.0459 31.5053 40.8246 30.7905 38.2382C30.289 39.2516 29.6924 40.2152 29.0088 41.1159C25.9545 45.151 21.9673 47.6567 16.9192 48.3365C12.762 48.8886 8.9018 48.0815 5.50835 45.5332C2.36929 43.1546 0.587649 40.0117 0.120883 36.1043C-0.430456 31.4746 0.926961 27.3123 3.72671 23.6597C6.73865 19.7096 10.7258 17.2039 15.6043 16.3119C19.5178 15.6032 23.2677 16.0402 26.6539 18.2651ZM46.8336 24.3514L46.6978 24.3817C42.7528 25.2737 40.2076 27.7794 39.2744 31.772C38.5107 35.0848 40.1227 38.4404 43.177 39.7993C45.51 40.8188 47.843 40.6913 50.0914 39.5446C53.4427 37.8032 55.2667 35.0848 55.4789 31.4322C55.4363 30.8802 55.4363 30.4553 55.3512 30.0306C54.5966 25.8731 50.8141 23.5009 46.8336 24.3514Z" fill="black"/>
</g>
<defs>
<clipPath id="clip0_318_184">
<rect width="64" height="64" fill="white"/>
</clipPath>
</defs>
</svg>
