<svg xmlns="http://www.w3.org/2000/svg" width="16" viewBox="0 0 512 512">
    <path d="m292.532 173.311 1.124.751c13.212 8.736 22.685 20.717 28.917 35.194 1.496 2.246.5 3.495-2.493 4.243l-5.063 1.297c-11.447 2.953-20.53 5.436-31.827 8.39l-6.443 1.68c-2.32.574-2.96.332-5.428-2.48l-.348-.4c-3.519-3.994-6.155-6.66-10.817-9.042l-.899-.444c-15.705-7.736-30.91-5.49-45.12 3.745-16.952 10.982-25.677 27.206-25.428 47.423.25 19.967 13.96 36.44 33.654 39.186 16.951 2.247 31.16-3.743 42.378-16.472 2.244-2.747 4.238-5.742 6.73-9.236h-48.11c-5.235 0-6.48-3.244-4.736-7.487l.864-2.038c3.204-7.463 8.173-18.19 11.4-24.324l.704-1.32c.862-1.497 2.612-3.518 5.977-3.518h80.224c3.603-11.43 9.45-22.229 17.246-32.448 18.198-23.96 40.135-36.44 69.8-41.682 25.427-4.493 49.359-1.997 71.046 12.73 19.694 13.477 31.909 31.7 35.15 55.66 4.237 33.695-5.485 61.15-28.668 84.612-16.453 16.723-36.645 27.206-59.83 31.948-6.73 1.25-13.46 1.498-19.941 2.247-22.685-.5-43.376-6.989-60.826-21.964-12.273-10.624-20.727-23.678-24.928-38.877a105 105 0 0 1-10.47 16.911c-17.949 23.713-41.38 38.438-71.046 42.433-24.43 3.244-47.115-1.499-67.057-16.474-18.447-13.978-28.917-32.448-31.66-55.41-3.24-27.207 4.737-51.667 21.19-73.132 17.7-23.213 41.131-37.938 69.8-43.18 22.998-4.165 45.036-1.597 64.935 11.478m118.587 35.767-.798.178c-23.183 5.242-38.14 19.967-43.624 43.43-4.488 19.468 4.985 39.187 22.934 47.173 13.71 5.991 27.42 5.242 40.633-1.497 19.694-10.233 30.413-26.208 31.66-47.673-.25-3.244-.25-5.74-.75-8.237-4.435-24.432-26.663-38.372-50.055-33.374m-294.704 45.604c.997 0 1.496 1.516 1.496 3.537l-.5 12.126c0 2.021-.996 3.537-1.744 3.537l-54.344-.505c-.997 0-1.246-1.516-.748-3.032l3.49-12.63c.499-1.517 1.496-3.033 2.493-3.033zm5.484-22.962c.997 0 1.496 1.557 1.247 3.114l-1.995 12.454c-.25 2.075-1.246 3.112-2.243 3.112l-117.912.52c-.997 0-1.246-1.038-.748-2.595l5.235-14.009c.499-1.557 1.745-2.596 2.742-2.596zm12.963-22.962c.997 0 1.246 1.516.748 3.032l-4.238 13.136c-.5 1.516-1.745 3.032-2.493 3.032l-90.24-.507c-.998 0-1.247-1.01-.75-2.525l5.236-13.64c.499-1.517 1.745-2.528 2.742-2.528z"/>
</svg>
