<svg xmlns="http://www.w3.org/2000/svg" width="16" viewBox="0 0 512 512">
    <path d="M69.818 395.273q-29.09 0-49.431-20.34Q.047 354.591 0 325.453V278.91h69.818v46.545h69.818V116h69.818v209.454q0 29.091-20.34 49.478-20.34 20.386-49.478 20.341zm256 0q-19.782 0-33.14-13.406-13.359-13.404-13.405-33.14v-46.545h69.818v23.272h93.09V278.91H325.819q-19.782 0-33.14-13.405-13.359-13.406-13.406-33.14v-69.82q.001-19.78 13.406-33.14T325.818 116h139.636q19.782 0 33.187 13.405 13.405 13.406 13.36 33.14v46.546h-69.819v-23.273H349.09v46.546h116.363q19.782 0 33.187 13.405t13.36 33.14v69.818q-.001 19.782-13.406 33.187t-33.14 13.36z"/>
</svg>
