<svg width="16" viewBox="0 0 64 64" fill="none" xmlns="http://www.w3.org/2000/svg">
<g clip-path="url(#clip0_318_207)">
<path d="M31.6928 0.25C15.4848 0.250001 16.4969 7.2788 16.4969 7.2788L16.515 14.5606H31.9819V16.7469H10.3715C10.3715 16.7469 0 15.5707 0 31.9248C-1.156e-06 48.2789 9.05251 47.6989 9.05251 47.6989H14.4551V40.11C14.4551 40.11 14.1639 31.0575 23.3631 31.0575H38.7036C38.7036 31.0575 47.3224 31.1968 47.3224 22.7277V8.72431C47.3224 8.72431 48.631 0.25 31.6928 0.25ZM23.1643 5.14667C24.7032 5.14667 25.9469 6.39043 25.9469 7.92928C25.9469 9.46813 24.7032 10.7119 23.1643 10.7119C21.6255 10.7119 20.3817 9.46813 20.3817 7.92928C20.3817 6.39043 21.6255 5.14667 23.1643 5.14667Z" fill="#030303"/>
<path d="M32.1531 63.7635C48.3612 63.7635 47.3491 56.7347 47.3491 56.7347L47.331 49.4529H31.864V47.2666H53.4744C53.4744 47.2666 63.846 48.4428 63.846 32.0887C63.846 15.7346 54.7935 16.3146 54.7935 16.3146H49.3909V23.9035C49.3909 23.9035 49.6821 32.956 40.4829 32.956H25.1424C25.1424 32.956 16.5236 32.8167 16.5236 41.2858V55.2892C16.5236 55.2892 15.215 63.7635 32.1531 63.7635ZM40.6817 58.8668C39.1428 58.8668 37.8991 57.623 37.8991 56.0842C37.8991 54.5453 39.1428 53.3016 40.6817 53.3016C42.2205 53.3016 43.4643 54.5453 43.4643 56.0842C43.4643 57.623 42.2205 58.8668 40.6817 58.8668Z" fill="black"/>
</g>
<defs>
<clipPath id="clip0_318_207">
<rect width="64" height="64" fill="white"/>
</clipPath>
</defs>
</svg>
