<svg width="16" viewBox="0 0 64 64" fill="none" xmlns="http://www.w3.org/2000/svg">
<path d="M21.3802 2.70827C19.4028 2.55749 17.4401 2.8934 15.7188 3.89056C13.4236 5.22012 11.9271 7.504 11.1563 10.0781C10.3854 12.6521 10.2497 15.5863 10.5781 18.7812C10.6159 19.1482 10.6789 19.5322 10.7292 19.9062C10.5414 19.9876 10.3403 20.0621 10.1563 20.1458C7.26952 21.4579 4.83522 23.0449 3.02083 24.9947C1.20644 26.9446 0 29.3663 0 31.9999C0 34.6335 1.20644 37.0553 3.02083 39.0051C4.83522 40.955 7.26952 42.542 10.1563 43.8541C10.3403 43.9377 10.5414 44.0123 10.7292 44.0937C10.6788 44.4676 10.6159 44.8517 10.5781 45.2187C10.2495 48.4136 10.3855 51.3477 11.1563 53.9218C11.927 56.4959 13.4184 58.7796 15.7135 60.1093C18.0086 61.439 20.7325 61.5961 23.349 60.9843C25.9654 60.3726 28.5793 59.0356 31.1875 57.1614C31.4567 56.968 31.7258 56.7414 31.9948 56.5364C32.2657 56.743 32.5362 56.9666 32.8073 57.1614C35.4154 59.0357 38.0294 60.3776 40.6458 60.9895C43.2623 61.6014 45.9861 61.4389 48.2813 60.1093C50.5764 58.7798 52.0729 56.4959 52.8438 53.9218C53.6146 51.3477 53.7503 48.4136 53.4219 45.2187C53.384 44.8507 53.3161 44.4687 53.2656 44.0937C53.4549 44.0117 53.6583 43.9384 53.8438 43.8541C56.7305 42.542 59.1648 40.955 60.9792 39.0051C62.7936 37.0553 64 34.6335 64 31.9999C64 29.3663 62.7936 26.9446 60.9792 24.9947C59.1648 23.0449 56.7305 21.4579 53.8438 20.1458C53.6597 20.0621 53.4586 19.9876 53.2708 19.9062C53.3212 19.5322 53.3841 19.1482 53.4219 18.7812C53.7505 15.5863 53.6145 12.6522 52.8438 10.0781C52.073 7.50396 50.5816 5.22024 48.2865 3.89056C45.9914 2.56089 43.2675 2.40382 40.651 3.01556C38.0346 3.62731 35.4207 4.96426 32.8125 6.83848C32.5422 7.03269 32.2701 7.25756 32 7.46348C31.7305 7.25806 31.4623 7.03224 31.1927 6.83848C28.5846 4.96413 25.9706 3.62744 23.3542 3.01556C22.7001 2.86259 22.0394 2.75853 21.3802 2.70827ZM19.9792 8.01556C20.593 7.95798 21.2993 8.01274 22.1354 8.20827C23.7616 8.58858 25.7722 9.5485 27.901 11.052C26.2265 12.7079 24.5847 14.5594 23.0052 16.6093C20.4836 16.9601 18.1037 17.4695 15.875 18.0989C15.6186 15.4695 15.7868 13.2257 16.2708 11.6093C16.7635 9.96416 17.482 9.03149 18.3906 8.50515C18.8449 8.24198 19.3653 8.07314 19.9792 8.01556ZM43.026 8.01556C44.1018 7.92107 44.9279 8.11035 45.6094 8.50515C46.518 9.03154 47.2418 9.96414 47.7344 11.6093C48.2183 13.2257 48.3868 15.4695 48.1302 18.0989C45.9002 17.4688 43.5183 16.9604 40.9948 16.6093C39.4159 14.56 37.778 12.7075 36.1042 11.052C38.2318 9.55011 40.2393 8.58828 41.8646 8.20827C42.2826 8.11053 42.6675 8.04706 43.026 8.01556ZM32 14.5416C32.4763 15.0039 32.9508 15.5254 33.4271 16.0312C32.9506 16.0213 32.4819 15.9999 32 15.9999C31.5181 15.9999 31.0494 16.0213 30.5729 16.0312C31.0492 15.5255 31.5237 15.0038 32 14.5416ZM32 21.3333C34.1014 21.3333 36.13 21.4616 38.0938 21.6614C39.2023 23.2144 40.2774 24.8688 41.2917 26.6197C42.3343 28.4197 43.2457 30.2185 44.0573 31.9999C43.2456 33.7813 42.3344 35.5855 41.2917 37.3854C40.2773 39.1363 39.2024 40.7856 38.0938 42.3385C36.13 42.5383 34.1014 42.6666 32 42.6666C29.8986 42.6666 27.87 42.5383 25.9063 42.3385C24.7977 40.7855 23.7226 39.1363 22.7083 37.3854C21.6657 35.5854 20.7543 33.7814 19.9427 31.9999C20.7544 30.2186 21.6656 28.4144 22.7083 26.6145C23.7227 24.8636 24.7976 23.2143 25.9063 21.6614C27.87 21.4616 29.8986 21.3333 32 21.3333ZM18.7135 22.9218C18.5077 23.2638 18.2956 23.5942 18.0938 23.9426C17.8532 24.3578 17.6359 24.772 17.4063 25.1874C17.2238 24.5813 17.0259 23.9682 16.875 23.3801C17.4558 23.2101 18.1 23.0732 18.7135 22.9218ZM45.2865 22.927C45.8996 23.0784 46.5446 23.2102 47.125 23.3801C46.974 23.9682 46.7762 24.5813 46.5938 25.1874C46.3644 24.7726 46.1464 24.3572 45.9063 23.9426C45.7047 23.5947 45.492 23.2685 45.2865 22.927ZM32 23.9999C27.6133 23.9999 24 27.6132 24 31.9999C24 36.3866 27.6133 39.9999 32 39.9999C36.3867 39.9999 40 36.3866 40 31.9999C40 27.6132 36.3867 23.9999 32 23.9999ZM11.8229 25.2656C12.4093 27.4531 13.1646 29.7024 14.1094 31.9947C13.1631 34.289 12.405 36.5397 11.8177 38.7291C9.67069 37.6902 7.98468 36.5171 6.92188 35.3749C5.76757 34.1344 5.33333 33.0482 5.33333 31.9999C5.33333 30.9516 5.76757 29.8654 6.92188 28.6249C7.98574 27.4816 9.6728 26.3052 11.8229 25.2656ZM52.1823 25.2708C54.3293 26.3096 56.0153 27.4828 57.0781 28.6249C58.2324 29.8654 58.6667 30.9516 58.6667 31.9999C58.6667 33.0482 58.2324 34.1344 57.0781 35.3749C56.0146 36.5179 54.3262 37.6897 52.1771 38.7291C51.5904 36.5421 50.8355 34.2916 49.8906 31.9999C50.8361 29.7072 51.5954 27.4588 52.1823 25.2708ZM32 29.3333C33.5043 29.3333 34.6667 30.4956 34.6667 31.9999C34.6667 33.5043 33.5043 34.6666 32 34.6666C30.4957 34.6666 29.3333 33.5043 29.3333 31.9999C29.3333 30.4956 30.4957 29.3333 32 29.3333ZM17.4063 38.8124C17.6359 39.2279 17.8533 39.6421 18.0938 40.0572C18.2949 40.4044 18.5085 40.7321 18.7135 41.0729C18.1004 40.9215 17.4554 40.7897 16.875 40.6197C17.026 40.0317 17.2238 39.4185 17.4063 38.8124ZM46.5938 38.8124C46.776 39.418 46.9741 40.0322 47.125 40.6197C46.5442 40.7898 45.9 40.9266 45.2865 41.0781C45.4923 40.7361 45.7044 40.4057 45.9063 40.0572C46.1468 39.6421 46.3641 39.2279 46.5938 38.8124ZM15.8698 45.901C18.0998 46.531 20.4817 47.0395 23.0052 47.3906C24.5838 49.4395 26.2223 51.2926 27.8958 52.9479C25.7682 54.4498 23.7607 55.4116 22.1354 55.7916C20.4632 56.1826 19.2992 56.0211 18.3906 55.4947C17.482 54.9683 16.7582 54.0357 16.2656 52.3906C15.7817 50.7742 15.6132 48.5304 15.8698 45.901ZM48.1302 45.901C48.3866 48.5304 48.2184 50.7794 47.7344 52.3958C47.2417 54.0409 46.518 54.9684 45.6094 55.4947C44.7008 56.0211 43.5368 56.1827 41.8646 55.7916C40.2383 55.4113 38.2279 54.4515 36.099 52.9479C37.7735 51.292 39.4153 49.4405 40.9948 47.3906C43.5183 47.0395 45.9002 46.531 48.1302 45.901ZM30.5729 47.9687C31.0494 47.9786 31.5181 47.9999 32 47.9999C32.4819 47.9999 32.9506 47.9786 33.4271 47.9687C32.9508 48.4744 32.4763 48.996 32 49.4583C31.5237 48.996 31.0492 48.4744 30.5729 47.9687Z" fill="black"/>
</svg>
