<svg width="16" height="64" viewBox="0 0 64 64" fill="none" xmlns="http://www.w3.org/2000/svg">
<path d="M4 29.6451L10.475 18.5351C10.535 18.4251 10.615 18.3251 10.705 18.2451L22.325 7.41506C22.45 7.30006 22.6 7.21006 22.76 7.15006L32.74 3.48506L41.155 9.36506L36.965 22.6851L21.245 37.2901L8.425 40.1651L4 29.6451ZM9.34 42.5851L15.32 59.6851L20.24 40.1351L9.34 42.5851ZM54.38 3.68006L44.895 8.95006L60.615 20.3651C60.945 18.8951 61.33 16.8901 61.42 15.1851C61.415 15.1651 61.415 15.1401 61.415 15.1151C61.465 12.6851 61.065 10.1451 59.745 7.95006C58.56 5.97506 56.78 4.53006 54.445 3.62006C54.425 3.64006 54.41 3.66506 54.38 3.68006ZM44 45.5401L37.5 25.6751L24.305 37.9451L44 45.5401ZM39.865 24.6651L46.32 44.3901C51.37 38.8951 56.54 32.3151 59.49 24.2251L39.865 24.6651ZM58.09 21.6951L43.33 10.9801L39.83 22.1051L58.09 21.6951ZM7.375 44.7201L2.99 52.2451C4.49 59.1901 9.685 60.7451 13.11 61.1251L7.375 44.7201ZM6.245 41.5801L2.56 32.8251V47.9001L6.245 41.5801ZM51.1 2.57506C51.08 2.57006 51.06 2.56006 51.035 2.56006H35.89L42.64 7.28006L51.1 2.57506ZM22.88 40.1351L17.635 60.9701C28.3 59.4001 36.3 53.6701 42.785 47.8151L22.88 40.1351ZM57.02 58.4301C56.72 58.4301 56.415 58.3251 56.17 58.1101L45.59 48.7151C40.94 53.0301 35.51 57.4151 28.825 60.3701L57.04 58.4551C57.205 58.4451 57.36 58.3951 57.505 58.3301C57.35 58.3951 57.185 58.4301 57.02 58.4301ZM47.44 46.9351L57.87 56.1951C58.09 56.3901 58.205 56.6451 58.255 56.9101L60.41 28.6901C57.065 35.9401 52.15 41.8951 47.44 46.9351Z" fill="black"/>
</svg>
