<svg xmlns="http://www.w3.org/2000/svg" width="16" viewBox="0 0 512 512">
    <path d="m508.502 249.721-21.494-13.306a292 292 0 0 0-.612-6.26l18.472-17.23a7.37 7.37 0 0 0 2.21-6.853 7.37 7.37 0 0 0-4.66-5.488l-23.614-8.83a275 275 0 0 0-1.85-6.096l14.73-20.457a7.396 7.396 0 0 0-4.814-11.628l-24.9-4.05a213 213 0 0 0-2.992-5.592l10.462-22.966a7.37 7.37 0 0 0-.576-7.18 7.36 7.36 0 0 0-6.408-3.283l-25.272.88a200 200 0 0 0-3.992-4.842L439 81.924a7.39 7.39 0 0 0-1.972-6.932 7.4 7.4 0 0 0-6.928-1.972l-24.61 5.802a212 212 0 0 0-4.852-3.992l.884-25.27a7.37 7.37 0 0 0-3.28-6.409 7.39 7.39 0 0 0-7.18-.58l-22.96 10.468a267 267 0 0 0-5.592-3l-4.06-24.904a7.4 7.4 0 0 0-11.624-4.814l-20.472 14.73a223 223 0 0 0-6.084-1.844L311.44 9.59a7.38 7.38 0 0 0-5.49-4.672 7.41 7.41 0 0 0-6.848 2.212l-17.23 18.485q-3.126-.35-6.26-.612l-13.306-21.5a7.396 7.396 0 0 0-12.578 0l-13.306 21.5q-3.137.263-6.266.612L212.922 7.13a7.39 7.39 0 0 0-12.338 2.46l-8.828 23.617a244 244 0 0 0-6.09 1.844l-20.468-14.73a7.37 7.37 0 0 0-7.158-.83 7.41 7.41 0 0 0-4.47 5.644l-4.06 24.904c-1.88.974-3.738 1.976-5.592 3l-22.962-10.47a7.37 7.37 0 0 0-7.176.582 7.37 7.37 0 0 0-3.284 6.41l.88 25.27a236 236 0 0 0-4.852 3.991l-24.61-5.8a7.42 7.42 0 0 0-6.932 1.97 7.39 7.39 0 0 0-1.972 6.932l5.798 24.616a233 233 0 0 0-3.982 4.842l-25.272-.88a7.44 7.44 0 0 0-6.408 3.282 7.39 7.39 0 0 0-.582 7.18l10.468 22.967a232 232 0 0 0-3 5.592l-24.898 4.05A7.4 7.4 0 0 0 20.32 165.2l14.73 20.46c-.64 2.02-1.262 4.047-1.85 6.093l-23.616 8.83a7.404 7.404 0 0 0-2.45 12.342l18.474 17.227c-.23 2.08-.434 4.174-.61 6.262L3.5 249.721a7.4 7.4 0 0 0-3.5 6.29 7.38 7.38 0 0 0 3.502 6.286l21.496 13.306c.176 2.093.38 4.183.61 6.261L7.132 299.098a7.394 7.394 0 0 0 2.452 12.338l23.616 8.83c.588 2.044 1.21 4.074 1.85 6.094l-14.73 20.46a7.392 7.392 0 0 0 4.82 11.624l24.894 4.05a208 208 0 0 0 3 5.6l-10.47 22.96a7.38 7.38 0 0 0 .582 7.18 7.37 7.37 0 0 0 6.408 3.281l25.26-.884a256 256 0 0 0 3.994 4.852l-5.798 24.62a7.36 7.36 0 0 0 1.972 6.917 7.37 7.37 0 0 0 6.932 1.966l24.61-5.795c1.6 1.36 3.22 2.68 4.854 3.98l-.88 25.277a7.388 7.388 0 0 0 10.458 6.984l22.962-10.462a211 211 0 0 0 5.592 2.998l4.06 24.89a7.38 7.38 0 0 0 4.47 5.65 7.41 7.41 0 0 0 7.158-.827l20.458-14.74c2.02.64 4.05 1.267 6.094 1.855l8.83 23.607a7.37 7.37 0 0 0 5.488 4.662 7.35 7.35 0 0 0 6.85-2.212l17.234-18.476c2.08.24 4.172.44 6.266.626l13.306 21.496a7.4 7.4 0 0 0 12.576 0l13.306-21.496c2.094-.186 4.184-.386 6.262-.626l17.23 18.476a7.36 7.36 0 0 0 6.848 2.212 7.38 7.38 0 0 0 5.488-4.662l8.83-23.607a239 239 0 0 0 6.096-1.854l20.462 14.74a7.4 7.4 0 0 0 11.624-4.825l4.06-24.889a288 288 0 0 0 5.59-3l22.962 10.464a7.384 7.384 0 0 0 10.46-6.984l-.88-25.276a198 198 0 0 0 4.846-3.981l24.612 5.795c2.5.588 5.12-.14 6.926-1.966a7.36 7.36 0 0 0 1.972-6.917l-5.796-24.62c1.35-1.6 2.68-3.21 3.98-4.852l25.272.884a7.36 7.36 0 0 0 6.408-3.28 7.37 7.37 0 0 0 .578-7.184l-10.464-22.955a214 214 0 0 0 2.994-5.6l24.9-4.052a7.36 7.36 0 0 0 5.644-4.472 7.39 7.39 0 0 0-.83-7.152l-14.73-20.46a279 279 0 0 0 1.85-6.095l23.612-8.83a7.37 7.37 0 0 0 4.662-5.49 7.35 7.35 0 0 0-2.212-6.848l-18.47-17.234c.224-2.08.43-4.172.61-6.26l21.496-13.307A7.39 7.39 0 0 0 512 256.01a7.39 7.39 0 0 0-3.498-6.29M372.851 448.532c-13.822-2.974-22.612-16.57-19.645-30.407 2.957-13.821 16.57-22.617 30.388-19.643 13.822 2.955 22.626 16.574 19.662 30.385-2.964 13.814-16.59 22.62-30.405 19.665m-15.517-69.9a13.86 13.86 0 0 0-16.46 10.664l-7.632 35.614c-23.55 10.687-49.7 16.625-77.242 16.625-28.172 0-54.892-6.232-78.86-17.375l-7.628-35.612c-1.604-7.493-8.972-12.267-16.456-10.66l-31.44 6.752a186.5 186.5 0 0 1-16.256-19.16h152.98c1.73 0 2.884-.313 2.884-1.89v-54.112c0-1.574-1.154-1.888-2.886-1.888H213.6v-34.3h48.39c4.416 0 23.618 1.26 29.756 25.804 1.924 7.548 6.144 32.1 9.032 39.96 2.876 8.815 14.586 26.425 27.066 26.425h76.23c.866 0 1.79-.098 2.764-.274a188 188 0 0 1-17.338 20.34zm-199 69.155c-13.824 2.978-27.432-5.818-30.406-19.64-2.956-13.846 5.833-27.435 19.654-30.41 13.835-2.95 27.446 5.854 30.402 19.664 2.957 13.815-5.84 27.428-19.653 30.386m-50.721-249.65c5.733 12.918-.101 28.057-13.02 33.773-12.918 5.732-28.038-.1-33.768-13.028-5.736-12.917.091-28.032 13.02-33.773a25.6 25.6 0 0 1 19.587-.478 25.57 25.57 0 0 1 14.18 13.503m-37.725 36.113 32.752-14.553c7.001-3.115 10.155-11.312 7.048-18.316l-6.744-15.252h26.528V305.7H75.946a187.4 187.4 0 0 1-7.132-51.343c0-6.796.366-13.512 1.07-20.112m143.724 4.344V187.39h63.172c3.264 0 23.04 5.48 23.04 26.964 0 17.837-15.168 24.232-27.642 24.232zm229.584 15.766c0 4.676-.172 9.304-.514 13.896h-19.206c-1.922 0-2.696 1.264-2.696 3.146v8.82c0 20.759-11.706 25.275-21.964 26.425-9.768 1.1-20.6-4.09-21.934-10.068-5.764-32.411-15.366-39.333-30.53-51.295 18.82-11.95 38.4-29.58 38.4-53.179 0-25.48-17.468-41.53-29.376-49.399-16.704-11.012-35.2-13.22-40.19-13.22H116.558c26.934-30.06 63.438-51.353 104.724-59.1l23.412 24.559a13.846 13.846 0 0 0 19.598.452l26.196-25.056c54.89 10.22 101.364 44.388 128.146 91.265L400.7 202.106c-3.096 7.01.064 15.208 7.054 18.314l34.528 15.335c.596 6.13.91 12.322.91 18.6M247.922 52.36c10.214-9.768 26.415-9.38 36.194.83 9.76 10.243 9.389 26.436-.848 36.197-10.214 9.772-26.415 9.392-36.194-.84-9.757-10.233-9.377-26.42.848-36.187m175.642 146.513a25.56 25.56 0 0 1 14.18-13.502 25.6 25.6 0 0 1 19.59.482c12.925 5.723 18.758 20.858 13.023 33.776a25.56 25.56 0 0 1-14.182 13.51 25.6 25.6 0 0 1-19.595-.48c-12.909-5.726-18.741-20.847-13.016-33.786"/>
</svg>
