<svg xmlns="http://www.w3.org/2000/svg" width="16" viewBox="0 0 512 512">
    <path fill="black" fill-rule="nonzero" d="m389.657 338.538.021 1.963a108.37 108.37 0 0 1-28.535 73.417l.064-.085a122.6 122.6 0 0 1-73.248 38.917l-.662.085v50.353c0 4.867-3.946 8.812-8.814 8.812h-.363.021-38.566a9.26 9.26 0 0 1-9.156-9.153v-50.012a179.8 179.8 0 0 1-37.692-9.26l1.26.406a175.4 175.4 0 0 1-50.583-26.756l.427.32c-4.667-3.375-9.149-7-13.424-10.86l.149.129q-3.564-3.414-4.994-5.121a8.68 8.68 0 0 1-.534-11.735l-.021.021 29.432-38.575a8.86 8.86 0 0 1 6.552-3.414h.021a7.07 7.07 0 0 1 6.83 2.582l.021.021.555.555a148.73 148.73 0 0 0 68.468 35.546l.981.192c6.36 1.45 13.66 2.283 21.151 2.283l1.323.021a69 69 0 0 0 39.655-12.46l-.235.15a40.04 40.04 0 0 0 17.587-34.928v.085c0-5.61-1.601-10.838-4.354-15.255l.064.128a54.3 54.3 0 0 0-9.54-11.927l-.022-.021a78.8 78.8 0 0 0-16.242-10.519l-.47-.213q-11.439-5.845-18.78-9.153-7.343-3.308-22.859-9.281a2516 2516 0 0 0-17.586-7.148q-6.446-2.581-17.587-7.574t-17.864-8.855-16.156-10.134a101.7 101.7 0 0 1-15.388-12.162l.021.022a176 176 0 0 1-12.165-13.655l-.278-.342a69.7 69.7 0 0 1-9.967-16.13l-.17-.448a110.7 110.7 0 0 1-5.87-18.22l-.149-.769a97 97 0 0 1-2.433-21.805v-1.152c0-26.67 10.693-50.865 28.044-68.489l-.021.021a130.54 130.54 0 0 1 72.117-38.17l.768-.106V9.068a8.8 8.8 0 0 1 2.71-6.358A8.82 8.82 0 0 1 239.533 0h38.993c4.866 0 8.815 3.947 8.815 8.812v.362-.02 50.288c11.738 1.238 22.452 3.563 32.718 6.892l-1.131-.32c9.796 2.987 18.035 6.251 25.953 10.049l-1.11-.47c7 3.478 12.955 7.041 18.59 11.01l-.427-.299q8.537 6.016 11.14 8.278 2.604 2.262 4.29 3.99a8.213 8.213 0 0 1 1.41 10.882l.02-.022-23.092 41.734a7.77 7.77 0 0 1-6.553 4.565h-.021a9.01 9.01 0 0 1-7.726-2.005h.021q-.854-.854-4.14-3.414-3.287-2.56-11.141-7.574a142 142 0 0 0-15.815-8.77l-.896-.383a120 120 0 0 0-20.404-7.233l-.897-.192a92.7 92.7 0 0 0-24.416-3.286h-.021a73.9 73.9 0 0 0-44.564 12.46l.278-.17c-14.966 9.94-21.046 28.919-14.641 45.701l-.086-.256c1.964 4.694 4.824 8.663 8.41 11.842l.042.021a131 131 0 0 0 10.949 9.196l.341.235c4.59 3.157 9.86 6.123 15.388 8.598l.64.256q10.715 4.992 17.288 7.724 6.574 2.73 20.02 7.851 15.153 5.719 23.157 9.004t21.727 10.007a171.6 171.6 0 0 1 22.217 12.524l-.618-.384a183 183 0 0 1 17.863 14.402l-.128-.128c5.912 5.163 10.95 11.137 14.962 17.815l.192.342c3.543 6.251 6.595 13.527 8.814 21.144l.192.725c2.327 7.788 3.65 16.749 3.65 26.009v.896-.043z"/>
</svg>
