<svg xmlns="http://www.w3.org/2000/svg" width="16" viewBox="0 0 512 512">
    <path d="M428.26 90.03a90.8 90.8 0 0 1 45.637 26.296 120.2 120.2 0 0 1 17.49 23.464c.226.924-31.49 22.233-50.727 34.12-.698.472-3.469-2.546-6.61-7.186a41.35 41.35 0 0 0-34.283-20.529c-22.11-1.519-36.357 10.06-36.254 29.418a26.7 26.7 0 0 0 3.14 13.672c4.866 10.06 13.9 16.095 42.27 28.392 52.225 22.48 74.643 37.3 88.48 58.363a105.89 105.89 0 0 1 8.54 88.952 97.8 97.8 0 0 1-80.72 57.788 223.8 223.8 0 0 1-55.592-.574 134.07 134.07 0 0 1-74.233-38.677 129 129 0 0 1-19.01-28.145 54.5 54.5 0 0 1 6.714-4.27c3.243-1.847 15.52-8.91 27.098-15.622l21.021-12.317 4.393 6.405a97.9 97.9 0 0 0 27.714 26.523 67.75 67.75 0 0 0 70.99-3.593c11.006-10.728 12.736-27.805 4.105-40.524-5.666-8.109-17.245-14.924-50.152-29.192a180.65 180.65 0 0 1-68.75-42.186 96.2 96.2 0 0 1-20.037-36.48 146.1 146.1 0 0 1-1.273-46.56c7.913-36.508 37.8-64.179 74.807-69.264a184.8 184.8 0 0 1 55.242 1.725m-171.27 30.444.225 29.85h-95.049v269.912H95.14V150.383H.091V121.07c-.253-10.04.021-20.086.821-30.096.35-.472 58.138-.698 128.203-.575l127.504.35z"/>
</svg>
